<svg xmlns="http://www.w3.org/2000/svg" viewBox="0 0 706.2 318.93"><defs><style>.cls-1{fill:#da5755;}.cls-2{fill:#e3dfd9;}.cls-3{fill:#a8d5b5;}.cls-4{fill:#fdb348;}</style></defs><title>Asset 2</title><g id="Layer_2" data-name="Layer 2"><g id="Layer_1-2" data-name="Layer 1"><path class="cls-1" d="M456.75,189c1.75-10.5-15.75-16.62-29.75-15.75s-29.75,7-35,2.63-22.75-25.38-36.75-25.38-33.25,1.75-42.88-1.75-36.75-25.37-62.13-14.87-21,21-31.5,25.38-31.5,21-28,30.63,62.13,16.63,91,12.25S455,199.55,456.75,189Z"/><circle class="cls-2" cx="465.61" cy="130.83" r="130.83"/><path class="cls-3" d="M706.18,256.3c.55,9.32-9.87,10.41-26.31,10.41s-87.7-3.29-103-1.1-53.17,4.93-58.65,2.74-7.67-8.77-14.25-8.22-99.76,6-109.07,2.19-11.51-12.61,2.19-13.7,69.06,1.1,68.51-5.48-11-11.51-4.93-17S519.82,219,525.85,213,545,190.53,567,192.17s23.57,23,30.15,23.57,44.4-5.48,57,4.93-14.25,19.73-5.48,22.47S705.63,247,706.18,256.3Z"/><path class="cls-4" d="M.24,290.23c-3.47-20.85,31.27-33,59.07-31.27s59.06,13.9,69.48,5.21,45.17-50.38,73-50.38,66,3.48,85.12-3.48,73-50.37,123.34-29.53,41.69,41.69,62.54,50.38,62.54,41.69,55.59,60.8S405,325,347.67,316.29,3.71,311.08.24,290.23Z"/></g></g></svg>